<svg xmlns="http://www.w3.org/2000/svg" width="226.172" height="149.142" viewBox="0 0 226.172 149.142">
    <defs>
        <clipPath id="zgzcga4yta">
            <path data-name="Rectangle 1386" style="fill:#fff" d="M0 0h226.172v149.142H0z"/>
        </clipPath>
    </defs>
    <g data-name="Group 2022">
        <g data-name="Group 81" style="clip-path:url(#zgzcga4yta)">
            <path data-name="Path 238" d="M2.7 90.508h2.674c.987 0 1.847-.322 1.847-1.515 0-1.177-.732-1.644-1.8-1.644H2.7zm0-4.884h2.53c.876 0 1.528-.4 1.528-1.371 0-1.1-.826-1.323-1.718-1.323H2.7zm-2.5-4.66h5.348c2.167 0 3.632.709 3.632 2.855a2.528 2.528 0 0 1-1.544 2.4 2.805 2.805 0 0 1 2.085 2.916c0 2.34-1.957 3.339-4.012 3.339H.2z" transform="translate(.133 56.391)" style="fill:#fff"/>
            <path data-name="Path 239" d="M9.994 88.027h2.946L11.508 83.8h-.032zm.24-7.063H12.8l4.253 11.512h-2.6l-.861-2.563H9.343l-.892 2.563H5.917z" transform="translate(3.999 56.391)" style="fill:#fff"/>
            <path data-name="Path 240" d="M12.9 80.964h2.485l4.746 7.722h.032v-7.722h2.341v11.512h-2.5l-4.731-7.707h-.03v7.707H12.9z" transform="translate(8.72 56.391)" style="fill:#fff"/>
            <path data-name="Path 241" d="M27.476 84.946a2.464 2.464 0 0 0-2.485-2.015c-2.244 0-3.089 1.934-3.089 3.949 0 1.919.845 3.853 3.089 3.853a2.578 2.578 0 0 0 2.583-2.579h2.42a4.828 4.828 0 0 1-5 4.708c-3.519 0-5.589-2.66-5.589-5.982 0-3.417 2.07-6.079 5.589-6.079a4.632 4.632 0 0 1 4.906 4.145z" transform="translate(13.113 56.278)" style="fill:#fff"/>
            <path data-name="Path 242" d="M31.784 90.734c2.246 0 3.09-1.934 3.09-3.853 0-2.015-.845-3.951-3.09-3.951S28.7 84.866 28.7 86.882c0 1.919.843 3.853 3.089 3.853m0-9.931c3.519 0 5.591 2.66 5.591 6.079 0 3.322-2.071 5.982-5.591 5.982s-5.589-2.66-5.589-5.982c0-3.418 2.07-6.079 5.589-6.079" transform="translate(17.705 56.279)" style="fill:#fff"/>
            <path data-name="Path 243" d="M44.447 91.282a3.833 3.833 0 0 1-3.122 1.581c-3.519 0-5.589-2.66-5.589-5.982 0-3.418 2.07-6.079 5.589-6.079a4.586 4.586 0 0 1 4.795 4.063h-2.39a2.337 2.337 0 0 0-2.4-1.936c-2.246 0-3.089 1.936-3.089 3.951 0 1.919.843 3.853 3.089 3.853a2.472 2.472 0 0 0 2.707-2.482h-2.521v-1.885h4.778v6.223H44.7z" transform="translate(24.154 56.279)" style="fill:#fff"/>
            <path data-name="Path 244" d="M42.994 80.964H51.5v2.129h-6v2.467h5.512v1.966h-5.517v2.823h6.132v2.127h-8.633z" transform="translate(29.06 56.391)" style="fill:#fff"/>
            <path data-name="Path 245" d="M48.9 80.964h2.49l4.746 7.722h.032v-7.722h2.341v11.512h-2.5l-4.731-7.707h-.032v7.707H48.9z" transform="translate(33.055 56.391)" style="fill:#fff"/>
            <path data-name="Path 246" d="M55.7 80.964h8.5v2.129h-6v2.467h5.512v1.966H58.2v2.823h6.132v2.127H55.7z" transform="translate(37.647 56.391)" style="fill:#fff"/>
            <path data-name="Path 247" d="M64.109 86.172h2.74c1.115 0 1.72-.483 1.72-1.646 0-1.111-.605-1.6-1.72-1.6h-2.74zm-2.5-5.208h6.132a3.144 3.144 0 0 1 3.33 3.178 2.836 2.836 0 0 1-1.8 2.886v.03c1.225.322 1.575 1.534 1.656 2.694a6.374 6.374 0 0 0 .478 2.725H68.9a12.843 12.843 0 0 1-.4-2.757c-.174-1.21-.637-1.742-1.9-1.742h-2.5v4.5h-2.5z" transform="translate(41.642 56.391)" style="fill:#fff"/>
            <path data-name="Path 248" d="M71.577 88.027h2.946L73.091 83.8h-.032zm.24-7.063h2.564l4.253 11.512h-2.6l-.861-2.563h-4.247l-.892 2.563H67.5z" transform="translate(45.624 56.391)" style="fill:#fff"/>
            <path data-name="Path 249" d="M74.484 80.964h2.5v9.385h5.542v2.127h-8.042z" transform="translate(50.344 56.391)" style="fill:#fff"/>
            <path data-name="Path 250" d="M84.766 86.172h2.74c1.114 0 1.719-.483 1.719-1.646 0-1.111-.605-1.6-1.719-1.6h-2.74zm-2.5-5.208H88.4a3.144 3.144 0 0 1 3.33 3.178 2.836 2.836 0 0 1-1.8 2.886v.03c1.225.322 1.575 1.534 1.656 2.694a6.374 6.374 0 0 0 .478 2.725h-2.5a12.946 12.946 0 0 1-.4-2.757c-.174-1.21-.637-1.742-1.9-1.742h-2.5v4.5h-2.5z" transform="translate(55.604 56.391)" style="fill:#fff"/>
            <path data-name="Path 251" d="M98.549 88.123c0 3.111-1.815 4.628-4.857 4.628-3.059 0-4.842-1.5-4.842-4.628v-7.159h2.5v7.159c0 1.257.318 2.5 2.341 2.5 1.783 0 2.356-.791 2.356-2.5v-7.159h2.5z" transform="translate(60.055 56.391)" style="fill:#fff"/>
            <path data-name="Path 252" d="M95.673 80.964h3.519l2.661 7.916h.03l2.517-7.916h3.519v11.512h-2.339v-8.158h-.032l-2.787 8.158h-1.927L98.047 84.4h-.032v8.079h-2.342z" transform="translate(64.666 56.391)" style="fill:#fff"/>
            <path data-name="Rectangle 1384" transform="translate(174.368 137.355)" style="fill:#fff" d="M0 0h2.5v11.512H0z"/>
            <path data-name="Path 253" d="M114.325 79.092a4.126 4.126 0 0 1-.494 1.193 1.437 1.437 0 0 1-1.289.645 4.179 4.179 0 0 1-1.306-.273 3.306 3.306 0 0 0-1.116-.275c-.429 0-.573.275-.669.677h-.97c.206-.935.6-1.966 2.006-1.966a2.813 2.813 0 0 1 1.019.275 2.72 2.72 0 0 0 1.052.29c.476 0 .684-.26.669-.565zm-7.725 3.176h2.484l4.746 7.722h.033v-7.722h2.341V93.78h-2.5l-4.731-7.707h-.032v7.707H106.6z" transform="translate(72.052 55.087)" style="fill:#fff"/>
            <path data-name="Path 254" d="M116.75 88.027h2.95l-1.437-4.227h-.032zm.24-7.063h2.564l4.253 11.512h-2.6l-.861-2.563H116.1l-.892 2.563h-2.534z" transform="translate(76.156 56.391)" style="fill:#fff"/>
            <path data-name="Path 255" d="M119.657 80.964h2.5v4.418h4.6v-4.418h2.5v11.512h-2.5V87.51h-4.6v4.966h-2.5z" transform="translate(80.877 56.391)" style="fill:#fff"/>
            <path data-name="Path 256" d="M136.121 88.123c0 3.111-1.815 4.628-4.858 4.628s-4.84-1.5-4.84-4.628v-7.159h2.5v7.159c0 1.257.318 2.5 2.34 2.5 1.785 0 2.358-.791 2.358-2.5v-7.159h2.5z" transform="translate(85.45 56.391)" style="fill:#fff"/>
            <path data-name="Rectangle 1385" transform="translate(223.306 137.355)" style="fill:#fff" d="M0 0h2.5v11.512H0z"/>
            <path data-name="Path 257" d="M7.513 100.524h25.853c11.16.114 20.771-3.69 20.771-16.441 0-10.177-7.622-15.435-20.771-15.435H7.513zm0-38.361h25.853c12.043 0 17.79-6.04 17.79-13.533 0-9.955-6.079-14.987-17.79-14.987H7.513zM0 27.156h33.366c13.26 0 25.3 4.7 25.3 19.572 0 8.389-5.524 16.1-13.7 17.895v.224c10.166 1.342 16.684 9.059 16.684 19.46 0 7.605-2.651 22.7-28.284 22.7H0z" transform="translate(0 18.915)" style="fill:#fff"/>
            <path data-name="Path 258" d="M115.39 107.7h-5.413l-.994-14.539h-.221c-5.3 11.407-15.911 16.217-27.29 16.217-24.859 0-37.234-19.8-37.234-41.606s12.375-41.6 37.234-41.6c16.573 0 30.052 9.059 32.925 26.508h-7.513C105.89 43.5 96.5 32.654 81.472 32.654c-20.882 0-29.721 17.671-29.721 35.117s8.839 35.119 29.721 35.119c17.456 0 27.622-12.415 27.29-29.3H81.914V67.1h33.476z" transform="translate(29.901 18.226)" style="fill:#fff"/>
            <path data-name="Path 259" d="M105.352 65.071h28.063c9.171 0 17.015-5.816 17.015-15.547s-5.745-15.881-17.015-15.881h-28.063zm-7.513-37.915h36.128c13.039 0 23.976 6.375 23.976 20.8 0 10.065-5.192 18.341-15.356 20.354v.224c10.275 1.342 13.258 8.5 13.809 18.007.332 5.48.332 16.441 3.647 20.466h-8.286c-1.879-3.132-1.879-9.059-2.1-12.415-.662-11.183-1.547-23.6-15.8-23.038h-28.505v35.453h-7.513z" transform="translate(66.13 18.915)" style="fill:#fff"/>
        </g>
        <path data-name="Path 235" d="m51.5 0-4.406 12.687-13.458.269 10.749 8.157-3.9 12.829L51.5 26.265l11.034 7.677-3.91-12.829 10.721-8.157-13.431-.269z" transform="translate(23.004 .001)" style="fill:#fff"/>
        <path data-name="Path 236" d="m74.7 0-4.442 12.687-13.413.269 10.682 8.157-3.895 12.829L74.7 26.265l11 7.677-3.88-12.829 10.7-8.157-13.423-.269z" transform="translate(38.844 .001)" style="fill:#fff"/>
        <path data-name="Path 237" d="m97.85 0-4.386 12.687-13.426.269 10.682 8.157-3.873 12.829 11-7.677 11.088 7.677-3.89-12.829 10.7-8.157-13.48-.269z" transform="translate(54.672 .001)" style="fill:#fff"/>
    </g>
</svg>
